<?xml version="1.0" ?><svg data-name="Layer 1" height="200" id="Layer_1" viewBox="0 0 200 200" width="200" xmlns="http://www.w3.org/2000/svg"><defs><style>.cls-1{fill:#72c053;}.cls-2{fill:#3bab70;}.cls-3{fill:#a4ce4e;}.cls-4{fill:#74c15b;}.cls-5{fill:#fff;}</style></defs><title/><path class="cls-1" d="M69.28,172.29h51.38s3-33.16,36.12-52.5l-8.17-13.88s-25.8,9.63-38.69,34c.39-17.65,12.31-50.76,12.31-50.76l-21.18-9.82S84.69,123.21,84.3,128.1C70.57,104,54.16,92.82,54.16,92.82L43.22,108.66s21.55,19,26.06,63.63Z"/><path class="cls-2" d="M92.11,172.29l29.43,0s1.53-17.23,13.71-36.06c1.43-2,9.46-14.92,23.75-24.94-.76-2.64-5.43-5.21-6.75-6.56-14.05,8.16-38.09,41.13-38.09,41.13s-8.59-.76-6.19-14.47c.19-8.3,5.12-29.88,5.12-29.88L120.57,76,114,73.78c0-.06-27.26,57.46-21.93,98.51Z"/><path class="cls-3" d="M188.73,70.83a25.8,25.8,0,0,0-41-20.88,25.81,25.81,0,0,0-48.36-8.53,25.93,25.93,0,0,0-20.09,1.66A25.81,25.81,0,0,0,29.9,53.51a26.53,26.53,0,0,0,.78,6.34A25.8,25.8,0,1,0,55.37,103,25.86,25.86,0,0,0,88.22,91.51a26.17,26.17,0,0,0,3.09.18,25.74,25.74,0,0,0,10.29-2.13,25.88,25.88,0,0,0,15.55,14.22c0,.43,0,.88,0,1.31a25.81,25.81,0,1,0,50.06-8.81,25.8,25.8,0,0,0,21.56-25.45Z"/><path class="cls-4" d="M108.13,32.39a25.81,25.81,0,0,1,25.56,22.25,25.72,25.72,0,0,1,14-4.9,25.8,25.8,0,0,0-40.37-17.33Zm80.6,38.44a25.78,25.78,0,0,0-40.64-21.09l.78,0A25.81,25.81,0,0,1,153.11,101a25.83,25.83,0,0,1-9.4,30A25.82,25.82,0,0,0,167.17,96.3a25.84,25.84,0,0,0,21.56-25.47Z"/><path class="cls-5" d="M50.08,39.4a14.82,14.82,0,0,0-5.92,6.08c-.8,1.56,1.54,3,2.36,1.39a12.26,12.26,0,0,1,4.94-5.1C53,40.91,51.62,38.54,50.08,39.4ZM41.46,51.59a1.37,1.37,0,0,0,0,2.74A1.37,1.37,0,0,0,41.46,51.59Z"/></svg>