<?xml version="1.0" ?><svg data-name="Layer 1" height="200" id="Layer_1" viewBox="0 0 200 200" width="200" xmlns="http://www.w3.org/2000/svg"><defs><style>.cls-1{fill:#ffd3bc;}.cls-2{fill:#ffb19a;}.cls-3{fill:#8a61a3;}.cls-4{fill:#6c4188;}.cls-5{fill:#fff;}</style></defs><title/><path class="cls-1" d="M144.54,128c-3.24-8.23-7.46-16.06-10.1-24.52-1.84-5.89-4.49-15.62,1.62-19.94a15.71,15.71,0,0,1,5-2.18,2.59,2.59,0,0,0,1.47-3.91l-.06-.2a2.44,2.44,0,0,0-1.18-3,49.88,49.88,0,0,0-16.13-4.16,60,60,0,0,0-17.3,1.48c-9.59,2-19.3,4.35-28.09,8.83a46.61,46.61,0,0,0-12.89,9.49,2.53,2.53,0,0,0-.72,1.58,3.44,3.44,0,0,0-.14.37,2.66,2.66,0,0,0,1.84,3.25A34.6,34.6,0,0,1,87,105.3a33.79,33.79,0,0,1,9.08,20.55A34.73,34.73,0,0,1,95,137.51c-1.12,4.14-2.8,8.08-4.14,12.15a35.72,35.72,0,0,0-2.25,12.48,21.82,21.82,0,0,0,3.65,11.34c9.57,14.3,33.07,16.35,45.1,4.15a42.31,42.31,0,0,0,7.19-10.24,40.06,40.06,0,0,0,4.31-12.69c1.29-9.15-1-18.23-4.33-26.68Z"/><path class="cls-2" d="M148.85,148.5a39.62,39.62,0,0,1-4.31,12.7,42.25,42.25,0,0,1-7.19,10.23c-12,12.21-35.51,10.16-45.1-4.14a21.6,21.6,0,0,1-3.45-9.2,27.47,27.47,0,0,0-.2,4,21.82,21.82,0,0,0,3.65,11.34c9.57,14.3,33.07,16.35,45.1,4.15a42.31,42.31,0,0,0,7.19-10.24,37,37,0,0,0,4.57-21.17C149.05,147,149,147.74,148.85,148.5Z"/><path class="cls-3" d="M25.28,80.68c.14,24.61,34.55,38.44,75.82,31.07s74.63-33.31,74.48-57.92a40.18,40.18,0,0,0-2.53-12.7C166.82,17.87,128.7,7.87,87.89,18.79S19.06,57.42,25.28,80.68Z"/><path class="cls-4" d="M174,43.62a26.16,26.16,0,0,0-2.69-6.41c5.11,23-22.68,50.08-62.86,60.84-36.83,9.87-71.48,2.66-82.46-16,.08.35.16.7.26,1.05,6.23,23.28,44.33,33.28,85.13,22.37S180.18,66.9,174,43.62Z"/><path class="cls-4" d="M65.36,48.88a4.31,4.31,0,0,0-4.24-4.24,4.27,4.27,0,0,0-4.24,4.24,4.24,4.24,0,0,0,8.48,0Zm-1.6,17.59a4.32,4.32,0,0,0-4.24-4.24,4.24,4.24,0,1,0,4.24,4.24ZM83.23,56.34A4.24,4.24,0,1,0,79,60.57,4.24,4.24,0,0,0,83.23,56.34Z"/><path class="cls-5" d="M81.9,28.15a.85.85,0,0,0-.23-.37.77.77,0,0,0-.37-.23.9.9,0,0,0-.45-.1l-.32,0a1.14,1.14,0,0,0-.5.29l-.18.24a1.15,1.15,0,0,0-.16.58v.28a.84.84,0,0,0,.1.44.77.77,0,0,0,.24.38.75.75,0,0,0,.37.23.85.85,0,0,0,.45.1l.31,0a1.36,1.36,0,0,0,.51-.29l.17-.24a1.15,1.15,0,0,0,.16-.58v-.3A.67.67,0,0,0,81.9,28.15Zm12-4.29a29.08,29.08,0,0,0-9.2,2.53c-1.34.63-.17,2.6,1.16,2a25.46,25.46,0,0,1,8-2.23C95.4,26,95.42,23.7,94,23.86Z"/></svg>