<?xml version="1.0" ?><svg data-name="Layer 1" height="200" id="Layer_1" viewBox="0 0 200 200" width="200" xmlns="http://www.w3.org/2000/svg"><defs><style>.cls-1{fill:#88961d;}.cls-2{fill:#b4e876;}.cls-3{fill:#81b532;}.cls-4{fill:#272727;}.cls-5{fill:#fbefc6;}</style></defs><title/><path class="cls-1" d="M18.88,100A81.12,81.12,0,1,0,100,18.88,81.15,81.15,0,0,0,18.88,100Z"/><path class="cls-2" d="M32.74,100A67.25,67.25,0,1,0,100,32.75,67.24,67.24,0,0,0,32.74,100Z"/><path class="cls-3" d="M104.17,54.78C103.53,71.15,101.53,87,99.85,87s-3.69-15.8-4.31-32.21c0-6.13,1.93-6.79,4.31-6.79S104.17,48.69,104.17,54.78Zm-11.84.47C96,71.25,98.12,87,96.49,87.46S88.84,73.14,84,57.5c-1.58-5.9.14-7.09,2.41-7.7S90.75,49.35,92.33,55.25ZM81,58.77C88.64,73.3,94.79,88,93.35,88.79S82.28,76.93,73.51,63.08c-3.05-5.29-1.7-6.85.33-8.06S78,53.47,81,58.77ZM71,65.06c11.11,12,20.88,24.63,19.68,25.8s-13.78-8.58-25.8-19.69c-4.31-4.32-3.41-6.19-1.73-7.87S66.65,60.74,71,65.06Zm-8,8.71c13.85,8.77,26.54,18.38,25.7,19.84s-15.52-4.73-30-12.34c-5.29-3-4.92-5.08-3.71-7.17S57.63,70.72,62.94,73.77ZM57.39,84.24c15.67,4.84,30.39,10.87,30,12.52s-16.23-.53-32.2-4.16c-5.9-1.59-6.06-3.66-5.45-6S51.49,82.65,57.39,84.24ZM54.78,95.82c16.36.64,32.2,2.63,32.2,4.31s-15.8,3.7-32.2,4.32c-6.14,0-6.8-1.93-6.8-4.32S48.64,95.82,54.78,95.82Zm.43,11.85c16-3.61,31.75-5.78,32.2-4.16s-14.31,7.66-30,12.52c-5.9,1.58-7.09-.13-7.69-2.4S49.33,109.24,55.21,107.67ZM58.72,119c14.53-7.63,29.18-13.79,30-12.34S76.88,117.71,63,126.48c-5.3,3-6.86,1.7-8.07-.33S53.43,122,58.72,119Zm6.33,10c12-11.11,24.63-20.88,25.8-19.69s-8.57,13.79-19.69,25.8c-4.31,4.32-6.19,3.42-7.87,1.74s-2.56-3.53,1.76-7.85Zm8.67,8c8.77-13.85,18.38-26.54,19.84-25.7s-4.72,15.52-12.34,30c-3,5.3-5.08,4.93-7.17,3.72s-3.38-2.74-.33-8Zm10.51,5.56c4.84-15.66,10.88-30.39,12.52-30s-.53,16.23-4.16,32.21c-1.58,5.9-3.65,6.06-6,5.45S82.63,148.49,84.23,142.61Zm11.54,2.6c.65-16.36,2.66-32.19,4.32-32.19s3.69,15.81,4.31,32.21c0,6.13-1.93,6.8-4.31,6.8S95.77,151.35,95.77,145.21Zm11.86-.43c-3.62-16-5.78-31.76-4.16-32.2s7.65,14.31,12.52,30c1.58,5.9-.14,7.09-2.41,7.69S109.19,150.68,107.63,144.78Zm11.31-3.51c-7.64-14.53-13.79-29.18-12.35-30s11.08,11.85,19.85,25.7c3,5.29,1.69,6.86-.34,8.07s-4.08,1.54-7.16-3.75Zm10-6.33c-11.11-12-20.87-24.63-19.66-25.8s13.79,8.57,25.8,19.69c4.31,4.31,3.42,6.19,1.74,7.87s-3.56,2.56-7.88-1.76Zm8.07-8.69c-13.85-8.77-26.54-18.38-25.7-19.85s15.53,4.73,30,12.35c5.29,3,4.92,5.08,3.71,7.17s-2.74,3.39-8,.33Zm5.53-10.49c-15.67-4.84-30.39-10.88-30-12.52s16.23.53,32.2,4.16c5.9,1.58,6.06,3.65,5.45,6s-1.79,4-7.69,2.4Zm2.62-11.54c-16.37-.65-32.21-2.64-32.21-4.32s15.8-3.69,32.21-4.32c6.13,0,6.79,1.94,6.79,4.32s-.68,4.32-6.79,4.32Zm-.45-11.86c-16,3.61-31.76,5.78-32.21,4.16s14.32-7.66,30-12.52c5.9-1.58,7.09.14,7.7,2.4S150.63,90.8,144.74,92.36Zm-3.52-11.31c-14.53,7.64-29.18,13.79-30,12.35s11.86-11.08,25.7-19.85c5.3-3,6.86-1.7,8.07.33S146.51,78,141.22,81.05Zm-6.29-10c-12.05,11.12-24.63,20.88-25.8,19.69s8.58-13.79,19.69-25.8c4.31-4.32,6.19-3.42,7.87-1.74s2.56,3.54-1.76,7.85ZM126.24,63c-8.77,13.84-18.38,26.54-19.84,25.7s4.72-15.53,12.34-30c3.05-5.29,5.08-4.92,7.17-3.71s3.38,2.73.33,8Zm-10.49-5.53c-4.84,15.66-10.88,30.39-12.52,30s.53-16.23,4.16-32.21c1.58-5.9,3.65-6.05,6-5.45S117.33,51.54,115.75,57.42Z"/><path class="cls-4" d="M96.51,62a3.63,3.63,0,0,0,1.82,3.15,3.71,3.71,0,0,0,3.65,0A3.6,3.6,0,0,0,103.8,62a3.65,3.65,0,1,0-7.29,0Zm-9.43,1.9a3.64,3.64,0,0,0,2.58,2.57A3.63,3.63,0,0,0,94.11,62a3.64,3.64,0,1,0-7,1.88Zm-8.65,4.31A3.59,3.59,0,0,0,81.57,70a3.63,3.63,0,0,0,3.15-1.82,3.71,3.71,0,0,0,0-3.65,3.65,3.65,0,0,0-5-1.35A3.71,3.71,0,0,0,78.43,68.16Zm-7.19,6.41a3.64,3.64,0,0,0,6.09-1.64,3.73,3.73,0,0,0-.93-3.52,3.65,3.65,0,1,0-5.16,5.16ZM66,82.63a3.66,3.66,0,0,0,3.65,0,3.62,3.62,0,0,0,0-6.28,3.63,3.63,0,0,0-5,1.34A3.58,3.58,0,0,0,66,82.63ZM62.9,91.77a3.64,3.64,0,0,0,1.88-7,3.64,3.64,0,1,0-1.88,7Zm-.57,9.59a3.62,3.62,0,0,0,3.15-1.81,3.71,3.71,0,0,0,0-3.65,3.6,3.6,0,0,0-3.15-1.82,3.64,3.64,0,1,0,0,7.28Zm1.92,9.46a3.67,3.67,0,0,0,2.58-2.58,3.74,3.74,0,0,0-.94-3.52,3.65,3.65,0,0,0-6.1,3.52A3.64,3.64,0,0,0,64.25,110.82Zm4.31,8.59a3.57,3.57,0,0,0,1.82-3.14,3.61,3.61,0,0,0-1.82-3.15,3.71,3.71,0,0,0-3.65,0,3.64,3.64,0,1,0,3.65,6.29ZM75,126.64a3.65,3.65,0,0,0-1.64-6.1,3.74,3.74,0,0,0-3.52.94A3.65,3.65,0,0,0,75,126.64ZM83,131.93a3.71,3.71,0,0,0,0-3.65,3.62,3.62,0,1,0,0,3.65Zm9.14,3a3.74,3.74,0,0,0-.94-3.52,3.65,3.65,0,1,0,.94,3.52Zm9.61.56A3.62,3.62,0,0,0,100,132.4a3.71,3.71,0,0,0-3.65,0,3.6,3.6,0,0,0-1.82,3.14,3.65,3.65,0,1,0,7.29,0Zm9.43-1.93a3.65,3.65,0,0,0-2.58-2.58,3.64,3.64,0,0,0-4.45,4.46,3.64,3.64,0,0,0,7-1.88Zm8.61-4.32a3.63,3.63,0,0,0-6.28,0,3.68,3.68,0,0,0,0,3.66,3.63,3.63,0,1,0,6.28-3.66Zm7.23-6.4a3.68,3.68,0,0,0-3.51-.94,3.64,3.64,0,0,0-2.58,2.58,3.73,3.73,0,0,0,.93,3.51,3.65,3.65,0,1,0,5.16-5.15Zm5.29-8a3.71,3.71,0,0,0-3.65,0,3.62,3.62,0,1,0,3.65,0Zm3-9.14a3.71,3.71,0,0,0-3.51.94,3.64,3.64,0,1,0,3.51-.94Zm.57-9.61a3.61,3.61,0,0,0-3.15,1.82,3.71,3.71,0,0,0,0,3.65A3.62,3.62,0,0,0,136,103.4a3.65,3.65,0,1,0,0-7.29Zm-2-9.43a3.64,3.64,0,0,0-2.57,2.58,3.63,3.63,0,0,0,4.45,4.45,3.64,3.64,0,1,0-1.88-7ZM129.68,78a3.63,3.63,0,0,0,0,6.29,3.64,3.64,0,1,0,0-6.29Zm-6.39-7.2a3.64,3.64,0,0,0,1.64,6.09,3.74,3.74,0,0,0,3.52-.94,3.65,3.65,0,1,0-5.16-5.15Zm-8-5.28a3.73,3.73,0,0,0,0,3.66,3.62,3.62,0,1,0,0-3.66Zm-9.14-3A3.64,3.64,0,0,0,110.58,67a3.64,3.64,0,0,0,0-7A3.61,3.61,0,0,0,106.12,62.52Z"/><path class="cls-5" d="M88.51,100a11.48,11.48,0,1,0,23,0h0a11.48,11.48,0,1,0-23,0Z"/></svg>