<?xml version="1.0" ?><svg data-name="Layer 1" height="200" id="Layer_1" viewBox="0 0 200 200" width="200" xmlns="http://www.w3.org/2000/svg"><defs><style>.cls-1{fill:#ff5677;}.cls-2{fill:#d60a51;}.cls-3{fill:#af0b46;}.cls-4{fill:#fff;}</style></defs><title/><path class="cls-1" d="M118.52,51c-4.24-4.57,6.38-17.31,6.38-17.31-8.32-1.27-12.79,3.34-15.15,7.85.7-10.52-7.89-21.13-7.89-21.13C96,25.42,96,45.15,96.11,48.64c-.45-3.36-7.93-12.24-7.93-12.24-4.88-7.62-15-3.13-15-3.13,7.62-1,8.34,17.7,8.34,17.7-31.07,7.4-54,33-54,63.26,0,36.07,32.54,65.39,72.56,65.39s72.56-29.34,72.56-65.41C172.56,83.9,149.59,58.37,118.52,51Z"/><path class="cls-2" d="M112,170.44a7.7,7.7,0,0,1-5.33-1s0,0,0,0a22.4,22.4,0,0,1-6.56-5.72s0-.08-.08-.12,0,.06-.08.1a22.26,22.26,0,0,1-6.56,5.72.07.07,0,0,0,0,0,7.73,7.73,0,0,1-5.33,1c-29.77-5-52.36-28.3-52.36-56.21,0-27.25,21.56-50.1,50.29-55.82a8.2,8.2,0,0,1,5.43.8c.68.37,1.37.76,2,1.15a22.4,22.4,0,0,1,6.56,5.72s0,.08.08.12,0-.06.08-.1a22.4,22.4,0,0,1,6.56-5.72c.68-.41,1.37-.8,2-1.17a8.18,8.18,0,0,1,5.43-.8c28.75,5.72,50.27,28.57,50.27,55.82,0,27.93-22.61,51.21-52.42,56.23Z"/><path class="cls-3" d="M81.09,80.81A5.08,5.08,0,1,0,76,85.89,5.15,5.15,0,0,0,81.09,80.81ZM60.61,92.26a5.08,5.08,0,1,0-5.08,5.07A5.16,5.16,0,0,0,60.61,92.26Zm9,43.39a5.08,5.08,0,1,0-5.08,5.08A5.16,5.16,0,0,0,69.63,135.65ZM49.84,124.21a5.08,5.08,0,1,0-5.07,5.08A5.15,5.15,0,0,0,49.84,124.21Zm26.39-13.56a5.08,5.08,0,1,0-5.08,5.08A5.16,5.16,0,0,0,76.23,110.65Zm-17.71-1.38a5.08,5.08,0,1,0-5.08,5.08A5.16,5.16,0,0,0,58.52,109.27Zm30.21,24.31a5.08,5.08,0,1,0-5.08,5.08A5.16,5.16,0,0,0,88.73,133.58Zm4.51-35.07a5.08,5.08,0,1,0-5.08,5.07A5.15,5.15,0,0,0,93.24,98.51Zm-5.9,60.43A5.08,5.08,0,1,0,82.27,164,5.14,5.14,0,0,0,87.34,158.94Zm-17.71-7-.18-1.35a5.06,5.06,0,0,0-1.31-2.24l-1-.8a4.92,4.92,0,0,0-2.56-.69H64.2a3.93,3.93,0,0,0-2,.43,3.67,3.67,0,0,0-1.64,1.06A4,4,0,0,0,59.55,150a3.73,3.73,0,0,0-.43,1.95l.18,1.35a5.09,5.09,0,0,0,1.31,2.25l1,.8a4.91,4.91,0,0,0,2.56.68h.35a3.93,3.93,0,0,0,2-.43,3.65,3.65,0,0,0,1.64-1,4,4,0,0,0,1.06-1.64A4,4,0,0,0,69.63,152Zm58.67,1.74a5.08,5.08,0,1,0-5.08,5.08A5.17,5.17,0,0,0,128.3,153.72ZM117,132.57a3.69,3.69,0,0,0-.92-1.72,3.81,3.81,0,0,0-1.42-1.31l-1.21-.51a5.37,5.37,0,0,0-2.7,0l-1.21.51a5.12,5.12,0,0,0-1.82,1.82c-.11.23-.23.47-.35.68a3.9,3.9,0,0,0-.6,1.9,4.58,4.58,0,0,0,1,3.75,3.89,3.89,0,0,0,1.43,1.3l1.21.51a5.15,5.15,0,0,0,2.7,0l1.21-.51a5.06,5.06,0,0,0,1.81-1.81l.35-.69a3.78,3.78,0,0,0,.61-1.89A4.11,4.11,0,0,0,117,132.57Zm29.73-.37a5.16,5.16,0,0,0-5.08-5.08,5.28,5.28,0,0,0-4.84,3.48,5.06,5.06,0,1,0-4.89,6.32,5.31,5.31,0,0,0,4.85-3.47,5.08,5.08,0,0,0,4.88,3.83A5.15,5.15,0,0,0,146.72,132.2ZM134.9,113.45a5.08,5.08,0,1,0-5.08,5.08A5.15,5.15,0,0,0,134.9,113.45ZM121,117.26a5.08,5.08,0,1,0-5.08,5.07A5.16,5.16,0,0,0,121,117.26Zm-2.43-34a5.08,5.08,0,1,0-5.07,5.08A5.15,5.15,0,0,0,118.59,83.23Zm19.26-5.51a5.06,5.06,0,0,0-1.31-2.24l-.35-.35a4,4,0,0,0-1.64-1.06,3.73,3.73,0,0,0-2-.43,4,4,0,0,0-2,.43A3.78,3.78,0,0,0,129,75.13l-.8,1a4.91,4.91,0,0,0-.68,2.56l.18,1.35a5.08,5.08,0,0,0,1.3,2.24l.36.36a3.89,3.89,0,0,0,1.64,1,3.73,3.73,0,0,0,1.95.43,3.93,3.93,0,0,0,2-.43,3.7,3.7,0,0,0,1.64-1l.8-1a4.92,4.92,0,0,0,.69-2.56Zm1.23,19.4A5.08,5.08,0,1,0,134,102.2,5.16,5.16,0,0,0,139.08,97.12Zm16.66,2.77a5.08,5.08,0,1,0-5.08,5.08A5.15,5.15,0,0,0,155.74,99.89Zm5.9,19.1a5.08,5.08,0,1,0-5.08,5.08A5.16,5.16,0,0,0,161.64,119Z"/><path class="cls-4" d="M67.32,68.43a2,2,0,0,0,0,3.9A2,2,0,0,0,67.32,68.43Zm16.39-3.71a1.86,1.86,0,0,0-2.28-1.29,46.81,46.81,0,0,0-9.34,2.83,1.92,1.92,0,0,0-1.29,2.28,1.86,1.86,0,0,0,2.29,1.29A47.38,47.38,0,0,1,82.42,67,1.87,1.87,0,0,0,83.71,64.72Z"/></svg>